<svg width="29" height="28" viewBox="0 0 29 28" fill="none" xmlns="http://www.w3.org/2000/svg">
<path d="M19.1667 12.8346H18V3.5013C18 2.21797 16.95 1.16797 15.6667 1.16797H13.3333C12.05 1.16797 11 2.21797 11 3.5013V12.8346H9.83333C6.61333 12.8346 4 15.448 4 18.668V26.8346H25V18.668C25 15.448 22.3867 12.8346 19.1667 12.8346ZM22.6667 24.5013H20.3333V21.0013C20.3333 20.3596 19.8083 19.8346 19.1667 19.8346C18.525 19.8346 18 20.3596 18 21.0013V24.5013H15.6667V21.0013C15.6667 20.3596 15.1417 19.8346 14.5 19.8346C13.8583 19.8346 13.3333 20.3596 13.3333 21.0013V24.5013H11V21.0013C11 20.3596 10.475 19.8346 9.83333 19.8346C9.19167 19.8346 8.66667 20.3596 8.66667 21.0013V24.5013H6.33333V18.668C6.33333 16.743 7.90833 15.168 9.83333 15.168H19.1667C21.0917 15.168 22.6667 16.743 22.6667 18.668V24.5013Z" fill="#7210FF"/>
</svg>
