<svg width="29" height="28" viewBox="0 0 29 28" fill="none" xmlns="http://www.w3.org/2000/svg">
<path d="M3.85986 6.15859V25.053C3.85986 25.8762 4.55258 26.8786 5.40546 26.8786H24.0075C24.8582 26.8786 25.6999 25.8762 25.6999 25.053V6.15859H3.85986ZM14.7575 21.1532C11.4759 21.1532 8.8153 18.5805 8.8153 15.4059C8.8153 12.2312 11.4759 9.65859 14.7575 9.65859C18.0391 9.65859 20.6996 12.2312 20.6996 15.4059C20.6996 18.5811 18.0391 21.1532 14.7575 21.1532V21.1532ZM24.0075 0.558594H5.40546C4.55258 0.558594 3.85986 1.13707 3.85986 1.96139V5.03859H25.6999V1.96139C25.6999 1.13707 24.8582 0.558594 24.0075 0.558594ZM11.1399 3.91859H4.97986V1.67859H11.1399V3.91859ZM21.8616 3.76179C21.1622 3.76179 20.5971 3.21355 20.5971 2.53651C20.5971 1.86059 21.1622 1.31235 21.8616 1.31235C22.5611 1.31235 23.1278 1.86059 23.1278 2.53651C23.1272 3.21299 22.5611 3.76179 21.8616 3.76179V3.76179Z" fill="#FFC02D"/>
</svg>
