<svg width="29" height="28" viewBox="0 0 29 28" fill="none" xmlns="http://www.w3.org/2000/svg">
<path d="M21.4998 4.66536V3.4987C21.4998 2.85703 20.9748 2.33203 20.3332 2.33203H6.33317C5.6915 2.33203 5.1665 2.85703 5.1665 3.4987V8.16536C5.1665 8.80703 5.6915 9.33203 6.33317 9.33203H20.3332C20.9748 9.33203 21.4998 8.80703 21.4998 8.16536V6.9987H22.6665V11.6654H12.1665C11.5248 11.6654 10.9998 12.1904 10.9998 12.832V24.4987C10.9998 25.1404 11.5248 25.6654 12.1665 25.6654H14.4998C15.1415 25.6654 15.6665 25.1404 15.6665 24.4987V13.9987H23.8332C24.4748 13.9987 24.9998 13.4737 24.9998 12.832V5.83203C24.9998 5.19036 24.4748 4.66536 23.8332 4.66536H21.4998Z" fill="#1A96F0"/>
</svg>
