<svg xmlns="http://www.w3.org/2000/svg" width="26.174" height="25" viewBox="0 0 26.174 25">
  <g id="valve-icon" transform="translate(0 0.03)">
    <path id="Path_334774" data-name="Path 334774" d="M16.874,11.566a7.357,7.357,0,0,1,2.516,2.384h1.142v7.713H19.311a7.111,7.111,0,0,1-6.173,3.308,7.162,7.162,0,0,1-6.2-3.308H5.672V13.949H6.931a7.627,7.627,0,0,1,2.761-2.467c.648-.349,1.039-.786,1.044-1.178a1.061,1.061,0,0,0-1.12-.918h-.29A1.291,1.291,0,0,1,8.039,8.1h0A1.291,1.291,0,0,1,9.325,6.814h1.653l1.3-1.612c0-.06-.009-.121-.009-.185V2.888H7A1.463,1.463,0,0,1,5.542,1.429h0A1.464,1.464,0,0,1,7-.03H19.394a1.464,1.464,0,0,1,1.459,1.459h0a1.463,1.463,0,0,1-1.459,1.459H14.38V5.016a2.54,2.54,0,0,1-.015.258l1.167,1.54h1.421A1.291,1.291,0,0,1,18.239,8.1h0a1.3,1.3,0,0,1-1.287,1.287c-.973.021-1.331.439-1.287.924.077.9.7.956,1.208,1.255Zm4.712,2.384h.895V12.107a.6.6,0,0,1,.594-.594h2.5a.6.6,0,0,1,.594.594V23.5a.6.6,0,0,1-.594.594h-2.5a.6.6,0,0,1-.594-.594V21.662h-.895V13.949ZM4.616,21.662H3.693V23.5A.6.6,0,0,1,3.1,24.1H.594A.6.6,0,0,1,0,23.5v-11.4a.6.6,0,0,1,.594-.594H3.1a.6.6,0,0,1,.594.594v1.842h.922v7.713Z" fill="#4aaf57" fill-rule="evenodd"/>
  </g>
</svg>
