<svg width="29" height="28" viewBox="0 0 29 28" fill="none" xmlns="http://www.w3.org/2000/svg">
<path d="M25.8284 23.6704L24.1718 25.327C23.9532 25.5443 23.6575 25.6663 23.3493 25.6663C23.0411 25.6663 22.7454 25.5443 22.5268 25.327L8.66678 11.4904C8.28739 11.6003 7.89505 11.6591 7.50011 11.6654C6.7573 11.6648 6.02534 11.487 5.3651 11.1466C4.70486 10.8063 4.1354 10.3132 3.70408 9.70843C3.27276 9.10367 2.99204 8.40468 2.88525 7.66959C2.77846 6.93449 2.8487 6.18452 3.09011 5.48203L6.05344 8.44536L6.67178 7.82703L8.32844 6.17036L8.94678 5.55203L5.98344 2.5887C6.68593 2.34728 7.4359 2.27705 8.171 2.38384C8.9061 2.49063 9.60508 2.77135 10.2098 3.20267C10.8146 3.63399 11.3077 4.20344 11.648 4.86369C11.9884 5.52393 12.1662 6.25588 12.1668 6.9987C12.1605 7.39363 12.1017 7.78598 11.9918 8.16536L25.8284 22.0254C26.0457 22.244 26.1677 22.5396 26.1677 22.8479C26.1677 23.1561 26.0457 23.4518 25.8284 23.6704V23.6704ZM3.17178 22.0254C2.95448 22.244 2.83252 22.5396 2.83252 22.8479C2.83252 23.1561 2.95448 23.4518 3.17178 23.6704L4.82844 25.327C5.04703 25.5443 5.34273 25.6663 5.65094 25.6663C5.95916 25.6663 6.25485 25.5443 6.47344 25.327L12.8551 18.957L9.55344 15.6554L3.17178 22.0254ZM23.8334 2.33203L19.1668 4.66536V6.9987L16.6351 9.53036L18.9684 11.8637L21.5001 9.33203H23.8334L26.1668 4.66536L23.8334 2.33203Z" fill="#FF981F"/>
</svg>
