<svg xmlns="http://www.w3.org/2000/svg" width="26.213" height="19.667" viewBox="0 0 26.213 19.667">
  <g id="truck" transform="translate(0 -24)">
    <g id="Group_87377" data-name="Group 87377" transform="translate(0 24)">
      <path id="Path_334776" data-name="Path 334776" d="M0,26.457A2.457,2.457,0,0,1,2.457,24H17.2a2.457,2.457,0,0,1,2.457,2.457v2.457H21.33a2.457,2.457,0,0,1,1.917.922l2.426,3.031a2.457,2.457,0,0,1,.539,1.537v3.521a2.457,2.457,0,0,1-2.457,2.457h-.819a3.277,3.277,0,0,1-6.553,0H8.191a3.277,3.277,0,1,1-6.55-.139A2.457,2.457,0,0,1,0,37.925ZM2.12,38.672a3.275,3.275,0,0,1,5.632.072h9.07a3.293,3.293,0,0,1,1.2-1.2V26.457a.819.819,0,0,0-.819-.819H2.457a.819.819,0,0,0-.819.819V37.925a.819.819,0,0,0,.482.747Zm17.539-1.566A3.277,3.277,0,0,1,22.5,38.744h1.258a.819.819,0,0,0,.819-.819V34.4a.819.819,0,0,0-.18-.511l-2.425-3.031a.819.819,0,0,0-.639-.308H19.659ZM4.915,38.745a1.638,1.638,0,1,0,1.638,1.638A1.638,1.638,0,0,0,4.915,38.745Zm14.745,0A1.638,1.638,0,1,0,21.3,40.383,1.638,1.638,0,0,0,19.659,38.745Z" transform="translate(0 -24)" fill="#00bcd3"/>
    </g>
  </g>
</svg>
